<svg xmlns="http://www.w3.org/2000/svg" width="36" height="36" id="gallery"><g transform="translate(0 -1016.362)"><rect width="36" height="36" y="1016.362" fill="#f05542" rx="6" ry="6"></rect><g transform="translate(253.5 -340)"><rect width="28" height="21" x="-248" y="1362.362" color="#000" opacity=".15" overflow="visible" rx="1.4" ry="1.4" style="isolation:auto;mix-blend-mode:normal"></rect><rect style="isolation:auto;mix-blend-mode:normal" width="28" height="21" x="-253" y="1366.362" color="#000" opacity=".15" overflow="visible" rx="1.4" ry="1.4"></rect><rect style="isolation:auto;mix-blend-mode:normal" width="28" height="21" x="-247" y="1362.362" fill="#f8b84e" color="#000" overflow="visible" rx="1.4" ry="1.4"></rect><path d="M-239.6 1367.916a2.802 2.802 0 0 1-2.8 2.802 2.802 2.802 0 0 1-2.8-2.803 2.797 2.797 0 0 1 2.8-2.797c1.547 0 2.8 1.25 2.8 2.798z" opacity=".15"></path><path fill="#e9eded" d="M-238.6 1367.916a2.802 2.802 0 0 1-2.8 2.802 2.802 2.802 0 0 1-2.8-2.803 2.797 2.797 0 0 1 2.8-2.797c1.547 0 2.8 1.25 2.8 2.798z"></path><path fill="#2b4255" d="M-231.43 1368.19c.346.04.709.2.989.482l.014.014 3.306 3.683 1.597-1.78.014-.014a1.576 1.576 0 0 1 1.025-.476c.427-.024.889.165 1.239.514l.021.022 1.422 1.688v6.578l.003.05v.07l-.003.017v1.524H-239.789a1.62 1.62 0 0 1-1.611-1.608c0-.341.09-.629.202-.826.035-.06.068-.1.102-.142l.01-.028.053-.057c.018-.021.031-.03.04-.043.013-.014.012-.014.009-.014l8.18-9.128.015-.014c.335-.334.712-.508 1.02-.508.108-.014.223-.015.339 0z" color="#000" overflow="visible" style="isolation:auto;mix-blend-mode:normal"></path><rect width="28" height="21" x="-252" y="1366.362" fill="#25b39e" color="#000" overflow="visible" rx="1.4" ry="1.4" style="isolation:auto;mix-blend-mode:normal"></rect><path d="M-244.6 1371.916a2.802 2.802 0 0 1-2.8 2.802 2.802 2.802 0 0 1-2.8-2.803 2.797 2.797 0 0 1 2.8-2.797c1.547 0 2.8 1.25 2.8 2.798z" opacity=".15"></path><path d="M-237.43 1372.19c.346.04.709.2.989.482l.014.014 3.306 3.683 1.597-1.78.014-.014a1.576 1.576 0 0 1 1.025-.476c.427-.024.889.165 1.239.514l.021.022 1.422 1.688v6.578l.003.05v.07l-.003.017v1.524H-245.789a1.62 1.62 0 0 1-1.611-1.608c0-.341.09-.629.202-.826.035-.06.068-.1.102-.142l.01-.028.053-.057c.018-.021.031-.03.04-.043.013-.014.012-.014.009-.014l8.18-9.128.015-.014c.335-.334.712-.508 1.02-.508.108-.014.223-.015.339 0z" color="#000" opacity=".15" overflow="visible" style="isolation:auto;mix-blend-mode:normal"></path><path fill="#e9eded" d="M-243.6 1371.916a2.802 2.802 0 0 1-2.8 2.802 2.802 2.802 0 0 1-2.8-2.803 2.797 2.797 0 0 1 2.8-2.797c1.547 0 2.8 1.25 2.8 2.798z"></path><path fill="#2b4255" style="isolation:auto;mix-blend-mode:normal" d="M-236.43 1372.19c.346.04.709.2.989.482l.014.014 3.306 3.683 1.597-1.78.014-.014a1.576 1.576 0 0 1 1.025-.476c.427-.024.889.165 1.239.514l.021.022 1.422 1.688v6.578l.003.05v.07l-.003.017v1.524H-244.789a1.62 1.62 0 0 1-1.611-1.608c0-.341.09-.629.202-.826.035-.06.068-.1.102-.142l.01-.028.053-.057c.018-.021.031-.03.04-.043.013-.014.012-.014.009-.014l8.18-9.128.015-.014c.335-.334.712-.508 1.02-.508.108-.014.223-.015.339 0z" color="#000" overflow="visible"></path></g></g></svg>